<svg viewBox="0 0 300 300" xmlns="http://www.w3.org/2000/svg"><g fill="none" fill-rule="evenodd"><g fill="#fff" transform="translate(31 54)"><path d="m98.175 62.1068182-44.2818182 44.1818178s62.0000002 74.881819 0 149.090909l44.2818182 44.39091s39.609091-43.745455 46.227273-87.272728h39.613636v-61.409091h-39.622727c-6.513003-31.706372-21.255147-61.1404968-42.745455-85.3454542z" transform="matrix(0 1 -1 0 299.893181 61.984091)"/><circle cx="119.218" cy="41.218" r="41.218" transform="matrix(0 1 -1 0 160.436364 -78)"/></g><path d="m227.272727 1c40.166164 0 72.727273 32.5611091 72.727273 72.7272727v154.5454543c0 40.166164-32.561109 72.727273-72.727273 72.727273h-47.468727l.000545-39.622727c31.706373-6.513003 61.140498-21.255148 85.345455-42.745455l3.636364-3.472727-44.181819-44.281818s-74.881818 62-149.0909086 0l-44.3909091 44.281818s43.7454545 39.609091 87.2727277 46.227273l-.000455 39.613636h-45.6677273c-40.1661636 0-72.7272727-32.561109-72.7272727-72.727273v-154.5454543c0-40.1661636 32.5611091-72.7272727 72.7272727-72.7272727zm-77.054545 54c-22.764173 0-41.218182 18.4540086-41.218182 41.2181818s18.454009 41.2181822 41.218182 41.2181822 41.218182-18.454009 41.218182-41.2181822-18.454009-41.2181818-41.218182-41.2181818z" fill="#4d65ff" transform="translate(0 -1)"/></g></svg>